<?xml version="1.0" encoding="UTF-8"?>
<svg width="60px" height="60px" viewBox="0 0 60 60" version="1.1" xmlns="http://www.w3.org/2000/svg" xmlns:xlink="http://www.w3.org/1999/xlink">
    <!-- Generator: Sketch 59.1 (86144) - https://sketch.com -->
    <title>circle_codeberg_icon</title>
    <desc>Created with Sketch.</desc>
    <g id="Page-1" stroke="none" stroke-width="1" fill="none" fill-rule="evenodd">
        <g id="circle_codeberg_icon" fill="#4793CC" fill-rule="nonzero">
            <path d="M29.9770929,12.6677578 L41.9312602,57.5286497 C38.2874138,59.1173749 34.2556739,60 30.0123559,60 C28.0023632,60 26.0393878,59.7999383 24.1351842,59.4233516 C15.8836351,57.6227964 8.86629203,52.5388758 4.51718494,45.6073266 L4.51718494,45.6073266 L4.52893929,45.5955583 L29.9770929,12.6677578 Z M30,0 C46.5699726,0 60,13.4263222 60,29.9917233 C60,35.1647371 58.6828695,40.0438297 56.377891,44.2880524 L56.0486084,43.8648058 L55.9310074,43.7002099 L31.5523324,12.191853 L30.7761662,11.180764 C30.6820855,11.0631955 30.5527244,10.9573838 30.3998432,10.8985996 C30.2704822,10.8398153 30.1176009,10.8163016 29.9647197,10.8163016 C29.6354371,10.8163016 29.3296746,10.9573838 29.1532732,11.1925208 L28.377107,12.2036099 L4.26891415,43.3710181 L3.91611133,43.7942647 L3.58682869,44.2175113 C1.30537044,39.9850454 0,35.1412234 0,29.9917233 C0,13.4263222 13.4300274,0 30,0 Z" id="Shape"></path>
        </g>
    </g>
</svg>