<?xml version="1.0" encoding="UTF-8"?>
<svg width="60px" height="60px" viewBox="0 0 60 60" version="1.1" xmlns="http://www.w3.org/2000/svg" xmlns:xlink="http://www.w3.org/1999/xlink">
    <!-- Generator: Sketch 59.1 (86144) - https://sketch.com -->
    <title>circle_mastodon_icon</title>
    <desc>Created with Sketch.</desc>
    <g id="Page-1" stroke="none" stroke-width="1" fill="none" fill-rule="evenodd">
        <g id="circle_mastodon_icon" fill="#595AFF" fill-rule="nonzero">
            <path d="M30,0 C46.5685425,0 60,13.4314575 60,30 C60,46.5685425 46.5685425,60 30,60 C13.4314575,60 0,46.5685425 0,30 C0,13.4314575 13.4314575,0 30,0 Z M30.046875,16.40625 L29.953125,16.40625 C26.1210938,16.4355469 22.4296875,16.8515625 20.2792969,17.8417969 C20.2792969,17.8417969 16.0136719,19.7460938 16.0136719,26.2558594 C16.0136719,27.7441406 15.984375,29.5253906 16.03125,31.4179688 C16.1835938,37.78125 17.1972656,44.0507812 23.0800781,45.609375 C25.7929688,46.3242188 28.1191406,46.4765625 30,46.3769531 C33.4042969,46.1894531 35.3144531,45.1640625 35.3144531,45.1640625 L35.203125,42.6972656 C35.203125,42.6972656 32.7714844,43.4648438 30.0410156,43.3710938 C27.3339844,43.2773438 24.4804688,43.078125 24.0410156,39.7558594 C24,39.4453125 23.9824219,39.1347656 23.9824219,38.8242188 C23.9824219,38.8242188 26.6367188,39.4746094 30,39.6269531 C32.0566406,39.7207031 33.984375,39.5039062 35.9472656,39.2753906 C39.703125,38.8242188 42.9785156,36.5097656 43.3886719,34.3945312 C44.0390625,31.0605469 43.9863281,26.2558594 43.9863281,26.2558594 C43.9863281,19.7519531 39.7207031,17.8417969 39.7207031,17.8417969 C37.5703125,16.8515625 33.8789062,16.4414062 30.046875,16.40625 Z M38.9589844,34.640625 L35.8359375,34.640625 L35.8359375,26.9941406 C35.8359375,25.3828125 35.15625,24.5625 33.8027344,24.5625 C32.3027344,24.5625 31.5527344,25.5351562 31.5527344,27.4511719 L31.5527344,31.640625 L28.4472656,31.640625 L28.4472656,27.4511719 C28.4472656,25.5292969 27.6972656,24.5625 26.1972656,24.5625 C24.84375,24.5625 24.1640625,25.3828125 24.1640625,26.9941406 L24.1640625,34.640625 L21.0410156,34.640625 L21.0410156,26.765625 C21.0410156,25.1542969 21.4511719,23.8769531 22.2773437,22.9277344 C23.1269531,21.9785156 24.2402344,21.4980469 25.6171875,21.4980469 C27.2167969,21.4980469 28.4238281,22.1132812 29.2265625,23.3378906 L30,24.6386719 L30.7792969,23.3378906 C31.5820312,22.1074219 32.7890625,21.4980469 34.3886719,21.4980469 C35.765625,21.4980469 36.8789062,21.984375 37.7285156,22.9277344 C38.5488281,23.8710938 38.9589844,25.1542969 38.9589844,26.765625 L38.9589844,34.640625 L38.9589844,34.640625 Z" id="Shape"></path>
        </g>
    </g>
</svg>